<svg xmlns="http://www.w3.org/2000/svg" xmlns:xlink="http://www.w3.org/1999/xlink" width="25" height="25" viewBox="0 0 25 25">
  <defs>
    <clipPath id="clip-path">
      <rect width="15" height="15" fill="none"/>
    </clipPath>
  </defs>
  <g id="Icon" transform="translate(-1155 -1397)">
    <circle id="Icon.BG" cx="12.5" cy="12.5" r="12.5" transform="translate(1155 1397)" fill="#ffe2e6"/>
  </g>
  <g id="icon_setting" transform="translate(5 5)" clip-path="url(#clip-path)">
    <path id="Caminho_108" data-name="Caminho 108" d="M12.469,4.875,13.5,2.906,12.188,1.594,10.219,2.625A3.358,3.358,0,0,0,9.188,2.25L8.438,0H6.563l-.75,2.156a3.918,3.918,0,0,0-.937.375L2.906,1.5,1.5,2.906,2.531,4.875a3.918,3.918,0,0,0-.375.938L0,6.563V8.438l2.156.75c.094.375.281.656.375,1.031L1.5,12.188,2.813,13.5l1.969-1.031a3.358,3.358,0,0,0,1.031.375L6.563,15H8.438l.75-2.156c.375-.094.656-.281,1.031-.375L12.188,13.5,13.5,12.188l-1.031-1.969a3.358,3.358,0,0,0,.375-1.031L15,8.438V6.563l-2.156-.75A3.918,3.918,0,0,0,12.469,4.875ZM7.5,10.313A2.762,2.762,0,0,1,4.688,7.5,2.762,2.762,0,0,1,7.5,4.688,2.762,2.762,0,0,1,10.313,7.5,2.762,2.762,0,0,1,7.5,10.313Z" fill="#ff7285"/>
  </g>
</svg>
